<svg xmlns="http://www.w3.org/2000/svg" version="1.1" viewBox="-5.0 -10.0 110.0 135.0">
 <path d="m62.227 38.828c0.61719-0.27734 1.3477-0.003906 1.625 0.61719 0.27734 0.62109 0.003907 1.3477-0.61719 1.625-2.875 1.3047-5.4414 3.332-7.457 5.8047-1.9219 2.3594-3.3438 5.1133-4.0586 8.0234 1.8906-0.011719 3.7148-0.44141 5.3984-1.1914 2.4883-1.1094 4.6758-2.9219 6.332-5.1328 1.6562-2.2109 2.7773-4.8164 3.1445-7.5195 0.29688-2.1914 0.09375-4.4414-0.73047-6.5938-2.2969-0.1875-4.5156 0.25-6.5312 1.1484-2.4883 1.1094-4.6758 2.9219-6.332 5.1328-0.72266 0.96484-1.3398 2-1.8438 3.0898-0.023438 0.066407-0.050781 0.125-0.082031 0.18359-0.60547 1.3555-1.0234 2.7891-1.2227 4.2461-0.18359 1.3633-0.17578 2.75 0.054688 4.1211 0.88672-2.5547 2.25-4.9531 3.9648-7.0586 2.2617-2.7617 5.1328-5.0312 8.3555-6.4961zm-12.223-26.523c8.3359 0 15.879 3.3789 21.34 8.8398 5.4609 5.4609 8.8398 13.008 8.8398 21.34 0 4.3125-0.90625 8.418-2.5391 12.133-1.6953 3.8555-4.1758 7.2891-7.2383 10.102-3.1914 2.9297-3.1914 2.9961-3.1914 7.3711h0.003906v7.5859c0 1.6758-0.66406 3.2031-1.7422 4.3398-0.82031 0.86328-1.8828 1.4961-3.0781 1.7891v2.0586c0 1.2695-0.50391 2.4297-1.3242 3.2891-0.58984 0.62109-1.3438 1.082-2.1914 1.3164-0.26953 1.2461-0.91406 2.3555-1.8047 3.2031-1.1211 1.0664-2.6367 1.7227-4.293 1.7227h-5.5703c-1.6562 0-3.168-0.65625-4.293-1.7227-0.89453-0.84766-1.5352-1.957-1.8086-3.2031-0.84766-0.23438-1.6016-0.69531-2.1914-1.3164-0.82031-0.85938-1.3242-2.0195-1.3242-3.2891v-2.0586c-1.1953-0.28906-2.2578-0.92578-3.0781-1.7891-1.0781-1.1367-1.7422-2.6641-1.7422-4.3398v-7.4297c0-4.5664-0.066406-4.6289-3.2578-7.5977l-0.058593-0.054688c-3.0195-2.8047-5.4688-6.2266-7.1406-10.062-1.6133-3.6953-2.5078-7.7734-2.5078-12.051 0-8.3359 3.3789-15.879 8.8398-21.34 5.4688-5.457 13.016-8.8359 21.352-8.8359zm19.602 10.582c5.0156 5.0156 8.1172 11.945 8.1172 19.602 0 3.9688-0.83203 7.7383-2.3281 11.145-1.5586 3.543-3.8359 6.6992-6.6484 9.2852-3.0195 2.7695-3.7461 3.4883-3.9258 6.0508l-29.645-0.003906c-0.20312-2.6055-0.98828-3.332-3.9766-6.1094l-0.058594-0.054688c-2.7773-2.582-5.0273-5.7227-6.5625-9.2461-1.4766-3.3828-2.2969-7.1289-2.2969-11.07 0-7.6562 3.1016-14.586 8.1172-19.602 5.0156-5.0156 11.945-8.1172 19.602-8.1172s14.586 3.1016 19.605 8.1211zm-34.359 48.539v0.82031 3.3711h29.512v-3.5234h0.003907v-0.66797zm0 6.6562v1.5977c0 1.0234 0.40234 1.957 1.0586 2.6484 0.64453 0.67969 1.5352 1.125 2.5195 1.1953h0.011719c0.16016 0 0.30859 0.027343 0.44922 0.085937h21.445c0.11719-0.046875 0.24609-0.074219 0.37891-0.082031 1.0156-0.050782 1.9297-0.50391 2.5938-1.1992 0.65625-0.69141 1.0586-1.6211 1.0586-2.6484v-1.5977zm4.8203 7.9844v1.8008c0 0.61719 0.24219 1.1797 0.64062 1.5977 0.39844 0.41797 0.94141 0.6875 1.5469 0.72266 0.039063 0 0.078125 0.003906 0.11719 0.007812h15.266c0.035156-0.003906 0.066406-0.007812 0.10156-0.007812 0.60938-0.027344 1.1641-0.30078 1.5625-0.72266 0.39453-0.41406 0.64062-0.97656 0.64062-1.5977v-1.8008zm3.6797 6.5859c0.20703 0.46875 0.50391 0.89062 0.87109 1.2383 0.67578 0.64453 1.5938 1.0391 2.6016 1.0391h5.5703c1.0078 0 1.9219-0.39844 2.6016-1.0391 0.36719-0.34766 0.66406-0.76953 0.87109-1.2383zm40.383-31.84-4.7188-2.7227c-0.58594-0.33984-1.3398-0.14062-1.6797 0.44922-0.33984 0.58594-0.14062 1.3359 0.44531 1.6758l4.7188 2.7227c0.58594 0.33984 1.3398 0.14062 1.6797-0.44531 0.33984-0.58984 0.14062-1.3398-0.44531-1.6797zm-49.688-47.684-2.7227-4.7188c-0.33594-0.58594-1.0859-0.78906-1.6719-0.45312-0.58594 0.33594-0.78906 1.0859-0.45312 1.6719l2.7227 4.7188c0.33594 0.58594 1.0859 0.78906 1.6719 0.45312 0.58984-0.33594 0.79297-1.0859 0.45312-1.6719zm14.328-9.293c0-0.67969 0.55078-1.2305 1.2305-1.2305s1.2305 0.55078 1.2305 1.2305v5.4492c0 0.67969-0.55078 1.2305-1.2305 1.2305s-1.2305-0.55078-1.2305-1.2305zm19.516 4.5664-2.7227 4.7188c-0.33984 0.58594-0.14062 1.3359 0.44531 1.6758 0.58594 0.33984 1.3398 0.14062 1.6797-0.44531l2.7227-4.7188c0.33984-0.58594 0.14062-1.3398-0.44531-1.6797-0.58594-0.33594-1.3398-0.13672-1.6797 0.44922zm14.617 13.715-4.7188 2.7227c-0.58594 0.33594-0.78906 1.0859-0.45312 1.6719 0.33594 0.58594 1.0859 0.78906 1.6758 0.45312l4.7188-2.7227c0.58594-0.33594 0.78906-1.0859 0.45312-1.6719-0.33984-0.58594-1.0898-0.78906-1.6758-0.45312zm-62.301 35.973-4.7188 2.7227c-0.58594 0.33594-0.78906 1.0859-0.45312 1.6719 0.33594 0.58594 1.0859 0.78906 1.6719 0.45312l4.7188-2.7227c0.58594-0.33594 0.78906-1.0859 0.45313-1.6719-0.33594-0.58594-1.0859-0.79297-1.6719-0.45312zm68.094-16.789c0.67578 0 1.2266 0.55078 1.2266 1.2266 0 0.67969-0.55078 1.2266-1.2266 1.2266h-5.4492c-0.67578 0-1.2266-0.54688-1.2266-1.2266 0-0.67969 0.55078-1.2266 1.2266-1.2266zm-66.867-16.457-4.7188-2.7227c-0.58594-0.33984-1.3398-0.14062-1.6797 0.44922-0.33984 0.58594-0.14063 1.3398 0.44922 1.6797l4.7188 2.7227c0.58594 0.33984 1.3398 0.14062 1.6797-0.44922 0.33594-0.58984 0.13672-1.3398-0.44922-1.6797zm-5.0703 16.453c0.67969 0 1.2305 0.55078 1.2305 1.2305 0 0.67969-0.55078 1.2305-1.2305 1.2305h-5.4492c-0.67969 0-1.2305-0.55078-1.2305-1.2305 0-0.67969 0.55078-1.2305 1.2305-1.2305zm33.242 15.973c-2.8594 0.30469-5.6211-0.20703-8.1133-1.3203-2.9258-1.3047-5.4805-3.4375-7.3945-6.0352-1.9141-2.5977-3.1914-5.668-3.5586-8.8516-0.31641-2.7383 0.035156-5.5586 1.2305-8.2383 0.17969-0.40234 0.55078-0.66016 0.95703-0.71484 3.7812-0.51172 7.3945 0.41016 10.465 2.2656 2.6055 1.5742 4.8203 3.8203 6.418 6.4336 0.32031-0.52734 0.66797-1.0352 1.0391-1.5273 1.9023-2.5391 4.418-4.6211 7.293-5.9023 2.6211-1.168 5.5352-1.6758 8.5508-1.2656 0.40625 0.054688 0.77734 0.3125 0.95703 0.71484 1.2422 2.7852 1.5742 5.7227 1.1875 8.5625-0.42188 3.1211-1.7148 6.1211-3.6172 8.6602-1.9023 2.5391-4.418 4.6211-7.293 5.9023-2.4961 1.1133-5.2578 1.625-8.1211 1.3164zm-1.3477-13.824c-1.4062-2.8555-3.6328-5.332-6.3398-6.9648-2.4297-1.4648-5.2383-2.25-8.1758-2.0117-0.78906 2.0586-1.0078 4.2148-0.76172 6.3203 0.32031 2.75 1.4297 5.4141 3.0977 7.6758 1.668 2.2617 3.8828 4.1172 6.4141 5.2461 1.5977 0.71094 3.3203 1.1328 5.1172 1.1836-0.30078-0.9375-0.5-1.8867-0.61719-2.8438-0.066407-0.082031-0.12109-0.17578-0.16406-0.27734-1.0234-2.3438-2.4961-4.5078-4.293-6.3516-1.7734-1.8164-3.8672-3.3164-6.1562-4.3555-0.61719-0.27734-0.89453-1.0078-0.61719-1.625 0.27734-0.61719 1.0078-0.89453 1.625-0.61719 2.5703 1.1641 4.918 2.8477 6.9102 4.8828 1.0586 1.082 2.0117 2.2656 2.8477 3.5273 0.22656-1.293 0.60547-2.5664 1.1133-3.7891z" fill-rule="evenodd"/>
<text x="0.0" y="117.5" font-size="5.0" font-weight="bold" font-family="Arbeit Regular, Helvetica, Arial-Unicode, Arial, Sans-serif" fill="#000000">Created by Agus Junaidi</text><text x="0.0" y="122.5" font-size="5.0" font-weight="bold" font-family="Arbeit Regular, Helvetica, Arial-Unicode, Arial, Sans-serif" fill="#000000">from Noun Project</text></svg>