<svg xmlns="http://www.w3.org/2000/svg" xmlns:xlink="http://www.w3.org/1999/xlink" version="1.1" x="0px" y="0px" viewBox="0 0 100 125" enable-background="new 0 0 100 100" xml:space="preserve"><polygon points="87.7,81.4 87.8,27.2 78.2,27.2 78.2,81.4 70.2,81.4 70.2,10.1 60.6,10.1 60.6,81.4 52.6,81.4 52.4,42.3 42.8,42.3   43,81.4 35,81.4 35,60.4 25.4,60.4 25.4,81.4 19.5,81.4 19.5,5.5 11,5.5 11,14.1 6.4,14.1 6.4,19.9 11,19.9 11,24.4 6.4,24.4   6.4,30.2 11,30.2 11,34.6 6.4,34.6 6.4,40.4 11,40.4 11,44.9 6.4,44.9 6.4,50.7 11,50.7 11,55.1 6.4,55.1 6.4,61 11,61 11,65.2   6.4,65.2 6.4,71 11,71 11,75.5 6.4,75.5 6.4,81.3 11,81.3 11,81.4 11,90 18.7,90 18.7,94.5 24.6,94.5 24.6,90 29,90 29,94.5   34.8,94.5 34.8,90 39.2,90 39.2,94.5 45.1,94.5 45.1,90 49.5,90 49.5,94.5 55.3,94.5 55.3,90 59.7,90 59.7,94.5 65.6,94.5 65.6,90   69.8,90 69.8,94.5 75.7,94.5 75.7,90 80.1,90 80.1,94.5 85.9,94.5 85.9,90 93.6,90 93.6,81.4 "/><text x="0" y="115" fill="#000000" font-size="5px" font-weight="bold" font-family="'Helvetica Neue', Helvetica, Arial-Unicode, Arial, Sans-serif">Created by Gregor Cresnar</text><text x="0" y="120" fill="#000000" font-size="5px" font-weight="bold" font-family="'Helvetica Neue', Helvetica, Arial-Unicode, Arial, Sans-serif">from the Noun Project</text></svg>