<svg xmlns="http://www.w3.org/2000/svg" xmlns:xlink="http://www.w3.org/1999/xlink" version="1.1" x="0px" y="0px" viewBox="0 0 98 122.5" style="enable-background:new 0 0 98 98;" xml:space="preserve"><style type="text/css">
	.st0{fill-rule:evenodd;clip-rule:evenodd;}
</style><path d="M92.173,15.62c0.796-1.386,1.006-3.004,0.59-4.557c-0.417-1.558-1.412-2.857-2.801-3.659S86.95,6.39,85.392,6.807  c-1.558,0.417-2.857,1.412-3.659,2.801l-2.531,4.383H9.912c-3.292,0-5.971,2.678-5.971,5.971v54.856  c0,3.292,2.678,5.971,5.971,5.971h20.18l-4.326,7.423c-0.388,0.665-0.392,1.456-0.013,2.116c0.381,0.662,1.088,1.074,1.846,1.074  h42.8c0.758,0,1.466-0.411,1.846-1.074c0.379-0.66,0.374-1.451-0.013-2.117l-4.326-7.423h20.18c3.292,0,5.971-2.678,5.971-5.971  V19.962C94.058,18.303,93.358,16.737,92.173,15.62z M58.908,54.901c-0.382-1-0.612-1.604-0.115-2.737  c0.554-1.265,1.776-2.43,3.626-2.43c0.665,0,1.411,0.151,2.237,0.502c0.631,0.268,1.243,0.75,1.733,1.37  c0.031,0.048,0.063,0.095,0.1,0.14c0.01,0.012,0.021,0.022,0.031,0.034c0.651,0.901,1.044,2.061,0.891,3.277  c-0.363,2.879-3.621,5.19-9.085,6.537C60.031,58.595,59.614,56.753,58.908,54.901z M67.663,48.866  c-0.594-0.532-1.245-0.953-1.902-1.232c-0.188-0.08-0.373-0.15-0.558-0.216c0.382-1.492,1.029-3.381,1.871-5.48l4.42,2.552  C70.091,46.277,68.771,47.787,67.663,48.866z M73.214,42.218l-5.032-2.905c0.417-0.945,0.863-1.913,1.334-2.891l12.375-21.433  l5.536,3.196L75.074,39.582C74.455,40.492,73.832,41.374,73.214,42.218z M86.124,9.538c0.828-0.222,1.689-0.11,2.424,0.314  c1.526,0.881,2.051,2.84,1.17,4.366l-0.877,1.519l-5.536-3.196l0.877-1.519C84.606,10.287,85.296,9.76,86.124,9.538z M9.912,16.819  H77.57L67.042,35.054c-0.018,0.03-0.034,0.061-0.049,0.093c-2.189,4.539-3.841,8.799-4.574,11.754  c-3.001-0.007-5.227,1.873-6.216,4.128c-0.962,2.194-0.393,3.683,0.063,4.88c0.582,1.524,1.084,2.84-2.217,6.852  c-0.372,0.452-0.427,1.087-0.137,1.597c0.254,0.446,0.726,0.715,1.229,0.715c0.071,0,0.142-0.005,0.214-0.016  c12.106-1.848,14.507-6.837,14.861-9.646c0.199-1.578-0.146-3.053-0.804-4.305c2.575-2.449,5.752-6.627,8.03-9.977  c0.02-0.029,0.038-0.058,0.055-0.088l13.188-22.842c0.35,0.513,0.547,1.126,0.547,1.763v50.37H6.769v-50.37  C6.769,18.229,8.179,16.819,9.912,16.819z M69.173,88.575H28.827l4.537-7.786h31.271L69.173,88.575z M88.088,77.962H9.912  c-1.733,0-3.143-1.41-3.143-3.143v-1.66h84.463v1.66C91.231,76.552,89.821,77.962,88.088,77.962z M28.485,52.016  c0.001,0,0.001,0,0.002,0s0.002,0,0.002,0c8.663-0.001,15.739-6.918,16.001-15.518c0.459-0.234,0.774-0.709,0.774-1.26  c0-0.6-0.374-1.111-0.901-1.316c-1.024-7.849-7.753-13.93-15.877-13.93c-8.829,0-16.012,7.183-16.012,16.012  C12.475,44.832,19.657,52.014,28.485,52.016z M28.487,22.819c6.528,0,11.961,4.771,13.002,11.008  c-0.755,0.029-1.359,0.649-1.359,1.411c0,0.781,0.633,1.414,1.414,1.414h0.112c-0.316,6.498-5.358,11.775-11.755,12.46v-0.817  c0-0.781-0.633-1.414-1.414-1.414s-1.414,0.633-1.414,1.414v0.817c-6.608-0.708-11.771-6.315-11.771-13.108  C15.303,28.734,21.217,22.819,28.487,22.819z M32.208,63.659c0,0.781-0.633,1.414-1.414,1.414h-2.307  c-0.781,0-1.414-0.633-1.414-1.414v-2.307c0-0.781,0.633-1.414,1.414-1.414s1.414,0.633,1.414,1.414v0.894h0.894  C31.575,62.245,32.208,62.878,32.208,63.659z M27.074,57.13v-2.307c0-0.781,0.633-1.414,1.414-1.414s1.414,0.633,1.414,1.414v2.307  c0,0.781-0.633,1.414-1.414,1.414S27.074,57.911,27.074,57.13z M38.737,63.659c0,0.781-0.633,1.414-1.414,1.414h-2.307  c-0.781,0-1.414-0.633-1.414-1.414s0.633-1.414,1.414-1.414h2.307C38.104,62.245,38.737,62.878,38.737,63.659z M27.074,44.074  v-2.307c0-0.781,0.633-1.414,1.414-1.414s1.414,0.633,1.414,1.414v2.307c0,0.781-0.633,1.414-1.414,1.414  S27.074,44.855,27.074,44.074z M33.602,35.238c0-0.781,0.633-1.414,1.414-1.414h2.307c0.781,0,1.414,0.633,1.414,1.414  c0,0.781-0.633,1.414-1.414,1.414h-2.307C34.235,36.652,33.602,36.019,33.602,35.238z M27.074,37.545v-2.307  c0-0.781,0.633-1.414,1.414-1.414h2.307c0.781,0,1.414,0.633,1.414,1.414c0,0.781-0.633,1.414-1.414,1.414h-0.894v0.894  c0,0.781-0.633,1.414-1.414,1.414S27.074,38.326,27.074,37.545z M46.659,63.659c0-0.781,0.633-1.414,1.414-1.414h2.307  c0.781,0,1.414,0.633,1.414,1.414s-0.633,1.414-1.414,1.414h-2.307C47.292,65.072,46.659,64.44,46.659,63.659z M45.265,63.659  c0,0.781-0.633,1.414-1.414,1.414h-2.307c-0.781,0-1.414-0.633-1.414-1.414s0.633-1.414,1.414-1.414h2.307  C44.632,62.245,45.265,62.878,45.265,63.659z M58.322,41.766v2.307c0,0.781-0.633,1.414-1.414,1.414s-1.414-0.633-1.414-1.414  v-2.307c0-0.781,0.633-1.414,1.414-1.414S58.322,40.986,58.322,41.766z M46.659,35.238c0-0.781,0.633-1.414,1.414-1.414h2.307  c0.781,0,1.414,0.633,1.414,1.414c0,0.781-0.633,1.414-1.414,1.414h-2.307C47.292,36.652,46.659,36.019,46.659,35.238z   M53.187,35.238c0-0.781,0.633-1.414,1.414-1.414h2.307c0.781,0,1.414,0.633,1.414,1.414v2.307c0,0.781-0.633,1.414-1.414,1.414  s-1.414-0.633-1.414-1.414v-0.894h-0.894C53.82,36.652,53.187,36.019,53.187,35.238z"/><text x="0" y="113" fill="#000000" font-size="5px" font-weight="bold" font-family="'Helvetica Neue', Helvetica, Arial-Unicode, Arial, Sans-serif">Created by MUHAMMAT SUKIRMAN</text><text x="0" y="118" fill="#000000" font-size="5px" font-weight="bold" font-family="'Helvetica Neue', Helvetica, Arial-Unicode, Arial, Sans-serif">from the Noun Project</text></svg>