<svg xmlns="http://www.w3.org/2000/svg" xmlns:xlink="http://www.w3.org/1999/xlink" version="1.1" x="0px" y="0px" viewBox="0 0 512 640" style="enable-background:new 0 0 512 512;" xml:space="preserve"><path d="M453.122,208.992c-9.461-0.881-18.533,1.186-26.383,5.37c-5.734-23.591-16.203-46.113-31.511-65.963  c-0.187-0.375-0.421-0.733-0.679-1.077c-24.453-31.163-58.611-52.886-96.855-62.149c2.827-5.342,4.721-11.277,5.31-17.661  c2.38-25.919-16.775-48.944-42.686-51.324c-12.538-1.108-24.811,2.661-34.502,10.713c-9.698,8.06-15.667,19.42-16.822,31.974  c-0.854,9.293,1.042,18.407,5.337,26.452c-23.56,5.739-46.05,16.2-65.875,31.488c-0.353,0.18-0.689,0.402-1.009,0.642  c-0.028,0.021-0.062,0.023-0.091,0.045c-0.02,0.016-0.027,0.04-0.047,0.056c-31.069,24.548-52.744,58.641-62.022,96.71  c-5.443-2.883-11.452-4.694-17.772-5.275c-25.755-2.403-48.944,16.767-51.324,42.686c-2.388,25.911,16.759,48.936,42.679,51.324  c1.459,0.133,2.91,0.195,4.354,0.195c7.953,0,15.442-2.164,22.104-5.735c5.814,24.04,16.534,46.999,32.101,67.018  c0.035,0.047,0.04,0.105,0.076,0.152c0.027,0.034,0.068,0.048,0.096,0.081c24.252,31.092,58.348,52.781,96.685,62.073  c-2.834,5.345-4.703,11.307-5.291,17.695c-1.155,12.554,2.653,24.803,10.713,34.494c8.06,9.698,19.42,15.675,31.974,16.83  c1.459,0.133,2.91,0.195,4.346,0.195c24.094,0,44.723-18.429,46.978-42.881c0.849-9.301-1.046-18.424-5.349-26.477  c24.173-5.879,47.126-16.641,66.847-32.111c0.04-0.029,0.093-0.015,0.133-0.046c0.08-0.062,0.112-0.156,0.188-0.221  c31.092-24.491,52.773-58.51,62.02-96.519c5.331,2.814,11.273,4.673,17.64,5.259c1.459,0.133,2.91,0.195,4.346,0.195  c24.094,0,44.723-18.429,46.978-42.881C498.188,234.397,479.033,211.372,453.122,208.992z M233.986,36.733  c6.242-5.189,13.927-7.958,21.948-7.958c1.061,0,2.138,0.047,3.215,0.148c18.897,1.732,32.855,18.523,31.123,37.42  c-1.732,18.889-18.546,32.832-37.42,31.123c-9.16-0.843-17.438-5.196-23.313-12.265c-5.883-7.069-8.653-16.003-7.81-25.155  C222.564,50.887,226.925,42.608,233.986,36.733z M222.752,96.381c7.782,7.816,17.817,12.797,28.93,13.819  c1.459,0.133,2.91,0.195,4.346,0.195c12.903,0,24.702-5.396,33.328-14.063c35.529,7.35,67.456,26.37,90.956,54.022l-39.566,31.041  c-2.364,1.841-5.758,1.436-7.755-1.108c-0.843-1.077-1.256-2.364-1.116-3.527c1.248-10.892-3.105-21.644-11.657-28.759  c-9.768-8.122-23.93-9.605-35.235-3.69c-8.653,4.533-14.778,12.53-16.798,21.948c-2.029,9.425,0.226,19.17,6.164,26.738  c5.134,6.554,12.491,10.822,20.707,12.023c1.124,0.172,2.2,0.843,3.542,2.551c0.889,1.139,1.287,2.551,1.116,3.995  c-0.172,1.436-0.889,2.707-2.029,3.605l-40.604,31.853l-31.848-40.599c-2.996-3.823-7.311-6.25-12.14-6.835  c-4.83-0.523-9.589,0.757-14.06,4.26c-3.636,2.856-6,6.843-6.655,11.228c-0.726,4.962-3.3,9.402-7.256,12.507  c-4.596,3.597-10.478,4.923-16.174,3.73c-5.774-1.248-10.502-4.876-13.303-10.237c-3.503-6.679-2.598-15.363,2.192-21.121  c4.4-5.298,10.759-7.88,17.469-7.131c4.588,0.468,9.129-0.827,13.061-3.909c7.896-6.195,9.285-17.657,3.098-25.553l-30.904-39.396  C179.133,110.504,200.395,101.007,222.752,96.381z M60.042,290.269c-18.897-1.74-32.855-18.523-31.116-37.42  c1.631-17.836,16.674-31.272,34.252-31.272c1.046,0,2.107,0.047,3.168,0.148c9.152,0.835,17.43,5.196,23.313,12.257  c5.875,7.069,8.645,16.003,7.802,25.162C95.73,278.051,78.791,292.017,60.042,290.269z M123.896,351.492  c-13.4-18.65-22.858-39.921-27.466-62.224c7.55-7.529,12.716-17.531,13.765-28.951c1.155-12.554-2.645-24.811-10.713-34.502  c-0.934-1.125-2.055-2.019-3.074-3.041c7.347-35.442,26.355-67.388,54.001-91.018l30.99,39.497c1.841,2.348,1.428,5.758-1.116,7.755  c-1.077,0.835-2.395,1.264-3.519,1.116c-10.954-1.225-21.651,3.105-28.759,11.657c-8.122,9.768-9.605,23.93-3.69,35.227  c4.533,8.653,12.53,14.778,21.948,16.798c9.41,2.021,19.155-0.226,26.746-6.164c6.546-5.134,10.814-12.491,12.016-20.7  c0.172-1.116,0.858-2.224,2.544-3.542c1.139-0.889,2.559-1.303,3.995-1.116c1.436,0.172,2.715,0.889,3.612,2.029l31.849,40.599  l-40.603,31.853c-7.888,6.195-9.269,17.657-2.575,26.185c2.863,3.659,6.858,6.023,11.228,6.655c4.97,0.741,9.417,3.316,12.515,7.264  c3.597,4.58,4.954,10.478,3.722,16.182c-1.241,5.774-4.869,10.502-10.229,13.303c-6.679,3.511-15.363,2.606-21.121-2.2  c-5.306-4.408-7.912-10.775-7.131-17.469c0.515-4.533-0.819-9.105-3.917-13.061c-2.996-3.823-7.303-6.25-12.125-6.835  c-4.869-0.562-9.612,0.741-13.42,3.745L123.896,351.492z M252.852,483.072c-9.16-0.843-17.438-5.196-23.313-12.265  c-5.883-7.069-8.653-16.003-7.81-25.155c0.835-9.16,5.196-17.438,12.257-23.313c6.242-5.189,13.935-7.958,21.956-7.958  c1.061,0,2.138,0.047,3.207,0.148c18.897,1.732,32.863,18.523,31.123,37.42C288.54,470.845,271.726,484.843,252.852,483.072z   M289.231,415.596c-7.778-7.803-17.804-12.779-28.911-13.801c-14.499-1.33-27.973,4.261-37.567,13.861  c-35.583-7.348-67.446-26.288-91.037-54.04l39.549-31.025c1.131-0.889,2.551-1.319,3.979-1.108c1.436,0.172,2.723,0.897,3.761,2.216  c0.85,1.085,1.256,2.372,1.124,3.527c-1.264,10.892,3.098,21.644,11.657,28.751c5.782,4.822,13.1,7.303,20.45,7.303  c5.072,0,10.166-1.178,14.778-3.597c8.653-4.533,14.778-12.53,16.798-21.948c2.029-9.425-0.218-19.17-6.164-26.754  c-5.126-6.538-12.476-10.806-20.715-12.023c-1.1-0.156-2.208-0.85-3.527-2.528c-1.849-2.356-1.436-5.766,0.905-7.607l40.604-31.853  l31.856,40.607c6.195,7.896,17.672,9.285,26.192,2.567c3.651-2.871,6.016-6.858,6.648-11.22c0.733-4.97,3.316-9.417,7.272-12.523  c4.564-3.589,10.471-4.97,16.166-3.722c5.782,1.241,10.51,4.869,13.311,10.229c3.503,6.679,2.598,15.363-2.2,21.129  c-4.408,5.306-10.806,7.927-17.454,7.131c-4.533-0.499-9.113,0.804-13.069,3.909c-3.823,2.996-6.257,7.311-6.843,12.133  c-0.585,4.83,0.749,9.597,3.745,13.42l30.933,39.435C332.936,401.474,311.665,410.956,289.231,415.596z M361.58,380.227  l-30.986-39.492c-0.889-1.131-1.28-2.551-1.108-3.987c0.172-1.436,0.897-2.715,2.216-3.753c1.092-0.85,2.419-1.233,3.527-1.124  c10.908,1.248,21.651-3.113,28.759-11.657c8.13-9.776,9.612-23.937,3.698-35.235c-4.533-8.653-12.53-14.778-21.956-16.798  c-9.41-2.036-19.17,0.226-26.746,6.172c-6.538,5.126-10.806,12.484-12.023,20.715c-0.156,1.116-0.835,2.192-2.536,3.527  c-2.356,1.857-5.766,1.443-7.607-0.913l-31.849-40.6l40.603-31.852c3.831-3.004,6.25-7.311,6.835-12.14  c0.577-4.83-0.757-9.589-4.268-14.06c-2.856-3.644-6.843-6-11.22-6.655c-4.97-0.726-9.41-3.3-12.515-7.264  c-3.589-4.58-4.947-10.471-3.722-16.166c1.241-5.774,4.869-10.502,10.229-13.303c6.702-3.511,15.363-2.598,21.129,2.192  c5.306,4.408,7.904,10.775,7.131,17.454c-0.531,4.533,0.804,9.113,3.901,13.077c6.195,7.88,17.649,9.3,25.56,3.09l39.445-30.948  c13.471,18.584,22.974,39.858,27.596,62.228c-7.58,7.536-12.822,17.506-13.875,28.946c-1.337,14.556,4.275,28.051,13.91,37.638  C408.379,324.681,389.367,356.543,361.58,380.227z M445.655,290.269c-18.897-1.74-32.863-18.523-31.123-37.42  c1.724-18.905,18.515-33.027,37.42-31.123c18.897,1.732,32.863,18.523,31.123,37.42C481.343,278.043,464.56,292.009,445.655,290.269  z"/><text x="0" y="527" fill="#000000" font-size="5px" font-weight="bold" font-family="'Helvetica Neue', Helvetica, Arial-Unicode, Arial, Sans-serif">Created by Shakeel Ch.</text><text x="0" y="532" fill="#000000" font-size="5px" font-weight="bold" font-family="'Helvetica Neue', Helvetica, Arial-Unicode, Arial, Sans-serif">from the Noun Project</text></svg>