<svg xmlns="http://www.w3.org/2000/svg" xmlns:xlink="http://www.w3.org/1999/xlink" version="1.1" x="0px" y="0px" viewBox="0 0 100 125" enable-background="new 0 0 100 100" xml:space="preserve"><path d="M5.1,74.4l2.9,0c0.4,2.2,1.3,4.4,2.6,6.3l-2,2c-0.7,0.7-0.7,1.9,0,2.6l2.2,2.2c0.7,0.7,1.9,0.7,2.6,0l2-2  c1.9,1.3,4.1,2.2,6.3,2.6l0,2.9c0,1,0.8,1.9,1.9,1.9l3.1,0c1,0,1.9-0.8,1.9-1.9l0-2.9c2.2-0.4,4.4-1.3,6.3-2.6l2,2  c0.7,0.7,1.9,0.7,2.6,0l2.2-2.2c0.7-0.7,0.7-1.9,0-2.6l-2-2c1.3-1.9,2.2-4.1,2.6-6.3l2.9,0c1,0,1.9-0.8,1.9-1.9l0-3.1  c0-1-0.8-1.9-1.9-1.9l-2.9,0c-0.4-2.2-1.3-4.4-2.6-6.3l2-2c0.7-0.7,0.7-1.9,0-2.6l-2.2-2.2c-0.7-0.7-1.9-0.7-2.6,0l-2,2  c-1.9-1.3-4.1-2.2-6.3-2.6l0-2.9c0-1-0.8-1.9-1.9-1.9l-3.1,0c-1,0-1.9,0.8-1.9,1.9l0,2.9c-2.2,0.4-4.4,1.3-6.3,2.6l-2-2  c-0.7-0.7-1.9-0.7-2.6,0l-2.2,2.2c-0.7,0.7-0.7,1.9,0,2.6l2,2c-1.3,1.9-2.2,4.1-2.6,6.3l-2.9,0c-1,0-1.9,0.8-1.9,1.9l0,3.1  C3.3,73.6,4.1,74.4,5.1,74.4z M19.3,65.2c3.3-3.2,8.6-3.2,11.8,0.1c3.2,3.3,3.2,8.6-0.1,11.8c-3.3,3.2-8.6,3.2-11.8-0.1  C16,73.7,16,68.4,19.3,65.2z M51.8,78.8l-1.9-0.5c-0.7-0.2-1.4,0.2-1.6,0.9l-0.6,2.1c-0.2,0.7,0.2,1.4,0.9,1.6l1.9,0.5  c-0.1,1.6,0.1,3.2,0.6,4.7l-1.7,1c-0.6,0.4-0.8,1.1-0.5,1.8l1.1,1.9c0.4,0.6,1.1,0.8,1.8,0.5l1.7-1c1,1.2,2.3,2.2,3.8,2.9l-0.5,1.9  c-0.2,0.7,0.2,1.4,0.9,1.6l2.1,0.6c0.7,0.2,1.4-0.2,1.6-0.9l0.5-1.9c1.6,0.1,3.2-0.1,4.7-0.6l1,1.7c0.4,0.6,1.1,0.8,1.8,0.5l1.9-1.1  c0.6-0.4,0.8-1.1,0.5-1.8l-1-1.7c1.2-1,2.2-2.3,2.9-3.8l1.9,0.5c0.7,0.2,1.4-0.2,1.6-0.9l0.6-2.1c0.2-0.7-0.2-1.4-0.9-1.6L74.9,85  c0.1-1.6-0.1-3.2-0.6-4.7l1.7-1c0.6-0.4,0.8-1.1,0.5-1.8l-1.1-1.9c-0.4-0.6-1.1-0.8-1.8-0.5l-1.7,1c-1-1.2-2.3-2.2-3.8-2.9l0.5-1.9  c0.2-0.7-0.2-1.4-0.9-1.6l-2.1-0.6c-0.7-0.2-1.4,0.2-1.6,0.9l-0.5,1.9c-1.6-0.1-3.2,0.1-4.7,0.6l-1-1.7c-0.4-0.6-1.1-0.8-1.8-0.5  l-1.9,1.1c-0.6,0.4-0.8,1.1-0.5,1.8l1,1.7C53.5,76.1,52.5,77.4,51.8,78.8z M57.1,82.7c0.8-3.1,4-4.9,7.1-4.1c3.1,0.8,4.9,4,4.1,7.1  c-0.8,3.1-4,4.9-7.1,4.1C58.1,89,56.3,85.8,57.1,82.7z M33.5,25.9l4.6,1.9c-0.7,3.4-0.7,7,0,10.5l-4.6,1.9c-1.1,0.5-1.7,1.8-1.2,2.9  l2.3,5.6c0.5,1.1,1.8,1.7,2.9,1.2l4.6-1.9c2,3,4.5,5.5,7.4,7.4L47.6,60c-0.5,1.1,0.1,2.4,1.2,2.9l5.6,2.3c1.1,0.5,2.4-0.1,2.9-1.2  l1.9-4.6c3.4,0.7,7,0.7,10.5,0l1.9,4.6c0.5,1.1,1.8,1.7,2.9,1.2l5.6-2.3c1.1-0.5,1.7-1.8,1.2-2.9l-1.9-4.6c3-2,5.5-4.5,7.4-7.4  l4.6,1.9c1.1,0.5,2.4-0.1,2.9-1.2l2.3-5.6c0.5-1.1-0.1-2.4-1.2-2.9l-4.6-1.9c0.7-3.4,0.7-7,0-10.5l4.6-1.9c1.1-0.5,1.7-1.8,1.2-2.9  l-2.3-5.6c-0.5-1.1-1.8-1.7-2.9-1.2l-4.6,1.9c-2-3-4.5-5.5-7.4-7.4l1.9-4.6C81.7,5,81.2,3.7,80,3.2l-5.6-2.3C73.3,0.5,72,1,71.6,2.1  l-1.9,4.6c-3.4-0.7-7-0.7-10.5,0l-1.9-4.6c-0.5-1.1-1.8-1.7-2.9-1.2l-5.6,2.3c-1.1,0.5-1.7,1.8-1.2,2.9l1.9,4.6  c-3,2-5.5,4.5-7.4,7.4l-4.6-1.9c-1.1-0.5-2.4,0.1-2.9,1.2L32.3,23C31.8,24.2,32.4,25.5,33.5,25.9z M57,15.2  c9.9-4.1,21.2,0.6,25.3,10.5c4.1,9.9-0.6,21.2-10.5,25.3C62,55,50.6,50.3,46.5,40.5C42.5,30.6,47.1,19.3,57,15.2z M59.4,35.9v-1.1  c-0.6-1-0.9-2-1-3c-0.3,0-0.8-0.5-1.3-2.2c-0.7-2.3,0-2.6,0.6-2.6c0,0-1.6-5.5,2.3-7.8c0,0-0.7-0.6-0.6-1.4c0,0,3.8,0.4,5.6,0.1  c1.8-0.4,3.8,1.1,4.1,2.4c0,0,3.9-0.3,2.2,6.7c0,0,0,0.1-0.1,0.4l0.1,0c0.4,0.2,0.7,0.8,0.2,2.6c-0.6,2.2-1.2,2.3-1.5,2.1  c-0.1,0.8-0.4,1.6-0.7,2.4c0,0.5,0,1,0,1.4c0,0.5,0,0.9,0,1.2c0,0.1,0.1,0.2,0.2,0.2c0.7,0.4,4.1,2.1,7.5,4.7  c-2.5,3.5-6.4,6-10.9,6.5l-1.1-4.9c2.6-3.6-0.2-3.8-0.7-3.8h0h0c-0.5,0-3.3,0.2-0.7,3.8l-1.1,4.9c-4.5-0.5-8.5-3-10.9-6.5  c3.4-2.6,6.8-4.3,7.5-4.7c0.1,0,0.2-0.1,0.2-0.2V35.9z"/><text x="0" y="115" fill="#000000" font-size="5px" font-weight="bold" font-family="'Helvetica Neue', Helvetica, Arial-Unicode, Arial, Sans-serif">Created by Gregor Cresnar</text><text x="0" y="120" fill="#000000" font-size="5px" font-weight="bold" font-family="'Helvetica Neue', Helvetica, Arial-Unicode, Arial, Sans-serif">from the Noun Project</text></svg>