<svg xmlns="http://www.w3.org/2000/svg" version="1.1" viewBox="-5.0 -10.0 110.0 135.0">
 <path d="m33.754 78.746c0.19922-0.082032 0.35547-0.24609 0.42969-0.44531l5.1016-13.613c2.1094-1.8242 8.9297-11.938 14.699-21.832 4.6406-7.9609 12.379-22.262 12.035-28.574-0.085937-1.5547-0.64062-2.6211-1.6523-3.1797-0.98047-0.53906-2.1445-0.44531-3.457 0.28125-5.4609 3.0117-13.387 17.16-17.629 25.328-5.2734 10.16-10.203 21.434-10.652 24.305l-9.3477 11.266c-0.14453 0.17578-0.20703 0.40625-0.16797 0.63281 0.58203 3.4102 0.42578 7.418-0.46484 11.906-0.003907 0.023438 0.003906 0.042969 0 0.066407-0.007813 0.054687-0.003907 0.10547 0 0.16016 0.003906 0.050781 0.011718 0.097656 0.023437 0.14453 0.015625 0.046875 0.035156 0.089844 0.054687 0.13281 0.023438 0.046875 0.050782 0.09375 0.085938 0.13281 0.015625 0.019531 0.019531 0.039063 0.035156 0.054688 0.019532 0.019531 0.042969 0.027343 0.0625 0.042969 0.042969 0.035156 0.085938 0.066406 0.13672 0.09375 0.003906 0.003906 0.011719 0.007812 0.015625 0.011718 0.015625 0.007813 0.023438 0.023438 0.039062 0.03125 0.039063 0.023438 0.085938 0.019532 0.12891 0.03125 0.011719 0.003906 0.019531 0.011719 0.03125 0.011719 0.011719 0.003906 0.019531 0 0.03125 0.003906 0.0625 0.015625 0.12109 0.046875 0.1875 0.046875 0.27734 0 0.54297-0.14844 0.6875-0.40625l0.046875-0.082031c3.2266-3.0352 6.4336-5.2422 9.5391-6.5469zm27.914-66c1.2266-0.67578 1.7695-0.375 1.9492-0.27734 0.1875 0.10547 0.76562 0.42188 0.84375 1.8945 0.14453 2.6445-1.4297 7.4766-4.4492 13.875-2.7422-0.66406-5.3359-2.0898-7.7188-4.2461 3.8203-6.0391 7.0703-9.9727 9.3789-11.246zm-16.996 24.68c2.3828-4.5898 4.6602-8.6367 6.7812-12.09 2.4258 2.1445 5.0664 3.5977 7.8633 4.332-1.8008 3.6914-4.0352 7.8516-6.6836 12.395-2.9648 5.082-5.9453 9.7891-8.4453 13.516-0.050781-0.027344-0.097656-0.0625-0.15625-0.078125-2.2188-0.57031-4.3203-1.7266-6.25-3.4375-0.03125-0.027344-0.070312-0.039062-0.10547-0.0625 1.8008-4.1055 4.1992-9.1836 7-14.582zm-7.6406 16.059c1.9336 1.6484 4.0312 2.8008 6.25 3.4336-2.3672 3.4609-4.1914 5.8594-4.9492 6.5469-0.88672-0.19922-3.5586-1.6484-4.1602-2.2617 0.17188-1.0234 1.1992-3.8359 2.8633-7.7188zm-3.6641 9.0859c0.37891 0.30859 0.93359 0.67969 1.75 1.1406 1.0938 0.61328 1.8711 0.95703 2.4375 1.1406l-4.7188 12.59c-2.1328 0.93359-4.3047 2.2617-6.4805 3.957l3.5898-6.5391c0.070313 0.007813 0.14453 0.027344 0.21484 0.027344 0.19141 0 0.38672-0.027344 0.57422-0.082031 0.52734-0.15234 0.96094-0.50391 1.2227-0.98047 0.54297-0.99219 0.17969-2.2383-0.80859-2.7812-0.99219-0.54297-2.2383-0.17969-2.7812 0.8125-0.41016 0.74609-0.30469 1.6406 0.19922 2.2695l-3.7539 6.8398c0.30078-2.8867 0.27344-5.5508-0.097656-7.9531l8.6523-10.43zm-3.6328 10.027c0.089844-0.16016 0.25391-0.25391 0.42578-0.25391 0.078125 0 0.16016 0.019531 0.23438 0.058594 0.23438 0.12891 0.32031 0.42578 0.19141 0.66016-0.0625 0.11328-0.16406 0.19531-0.28906 0.23438-0.125 0.035156-0.25781 0.023437-0.37109-0.039063-0.23438-0.12891-0.32031-0.42578-0.19141-0.66016zm46.918 12.715c-7.4883 2.8906-12.652 3.9336-16.203 3.9336-3.7852 0-5.7422-1.1797-6.7383-2.5547-1.9141-2.6484-0.61719-6.457 1.5195-9.0586 1.7656-2.1484 2.4844-3.3086 2.7734-3.9062-0.58594 0.14063-1.6992 0.51563-3.7617 1.5039-2.3477 1.1211-5.2656 2.6992-8.3555 4.3711-7.1484 3.8672-14.535 7.8672-18.66 8.418-0.59766 0.078125-1.1484-0.33984-1.2305-0.94141-0.078125-0.59766 0.33984-1.1484 0.94141-1.2305 3.7266-0.49609 11.262-4.5742 17.91-8.1719 10.34-5.5977 13.797-7.2656 15.176-5.5977 0.96484 1.168 0.15234 2.9844-3.0977 6.9414-1.5508 1.8867-2.6602 4.6914-1.4375 6.3867 0.84766 1.1719 2.7617 1.7422 5.5391 1.6484 3.6758-0.125 8.668-1.3984 14.84-3.7812 0.5625-0.21875 1.1992 0.0625 1.4141 0.62891 0.21875 0.5625-0.0625 1.1992-0.62891 1.4141z"/>
<text x="0.0" y="117.5" font-size="5.0" font-weight="bold" font-family="Arbeit Regular, Helvetica, Arial-Unicode, Arial, Sans-serif" fill="#000000">Created by Ar2ar</text><text x="0.0" y="122.5" font-size="5.0" font-weight="bold" font-family="Arbeit Regular, Helvetica, Arial-Unicode, Arial, Sans-serif" fill="#000000">from Noun Project</text></svg>